<svg xmlns="http://www.w3.org/2000/svg" xmlns:xlink="http://www.w3.org/1999/xlink" width="62.928"
     height="64.254" viewBox="0 0 62.928 64.254">
  <defs>
    <style>.a{fill:url(#a);}</style>
    <linearGradient id="a" x1="0.5" x2="0.5" y2="1" gradientUnits="objectBoundingBox">
      <stop offset="0" stop-color="#d6277f"/>
      <stop offset="1" stop-color="#f6ca3a"/>
    </linearGradient>
  </defs>
  <path class="a"
        d="M31.042,51.242a22.57,22.57,0,0,0-5.322-9.036l-7.593-7.868a4.268,4.268,0,0,0-4.514-1.051L11.059,23.069a4.283,4.283,0,1,0-8.308,2.084L8.4,47.783a13.909,13.909,0,0,0,3.492,6.3l1.35,1.405a10.327,10.327,0,0,1,2.64,7.358v1.071a1.071,1.071,0,0,0,1.071,1.071H30.87a1.071,1.071,0,0,0,1.071-1.071V58.586a23.4,23.4,0,0,0-.857-7.223ZM29.8,62.848H18.02A12.413,12.413,0,0,0,14.782,54L13.431,52.6a11.771,11.771,0,0,1-2.958-5.333L4.829,24.628a2.111,2.111,0,0,1,.593-2.061,2.086,2.086,0,0,1,.975-.535,2.142,2.142,0,0,1,2.587,1.558L11.731,34.6a4.305,4.305,0,0,0,.246,5.711l8.169,8.453,1.54-1.489-8.165-8.452a2.142,2.142,0,0,1-.121-2.873,2,2,0,0,1,.821-.589,1.887,1.887,0,0,1,.857-.182,2.155,2.155,0,0,1,1.51.653l7.591,7.863a20.474,20.474,0,0,1,4.827,8.213l.042.118a21.352,21.352,0,0,1,.752,6.541Z"
        transform="translate(-2.621 -0.736)"/>
  <path class="a"
        d="M62.013,21.029a4.214,4.214,0,0,0-1.945-1.071,4.3,4.3,0,0,0-5.19,3.116L52.331,33.291a4.235,4.235,0,0,0-1.5-.255,4.3,4.3,0,0,0-3.016,1.307L40.228,42.2a22.523,22.523,0,0,0-5.312,9l-.067.2A23.334,23.334,0,0,0,34,58.564v5.355a1.071,1.071,0,0,0,1.071,1.071H48.994a1.071,1.071,0,0,0,1.071-1.071V62.848a10.328,10.328,0,0,1,2.642-7.36l1.345-1.4a13.922,13.922,0,0,0,3.5-6.306l5.643-22.63a4.232,4.232,0,0,0-1.178-4.123Zm-.9,3.6L55.471,47.264A11.786,11.786,0,0,1,52.508,52.6L51.162,54a12.414,12.414,0,0,0-3.239,8.846H36.143V58.543a21.3,21.3,0,0,1,.739-6.48l.066-.193a20.424,20.424,0,0,1,4.819-8.179l7.584-7.857A2.1,2.1,0,0,1,51.82,35.4a1.861,1.861,0,0,1,.724.543,2.142,2.142,0,0,1-.116,2.881l-8.169,8.453,1.54,1.489,8.169-8.452a4.307,4.307,0,0,0,.246-5.712L56.96,23.594a2.141,2.141,0,1,1,4.155,1.036Z"
        transform="translate(-0.397 -0.736)"/>
  <path class="a"
        d="M47.266,27H45.124a13.9,13.9,0,0,1-1.869,6.962l1.853,1.07A16.021,16.021,0,0,0,47.266,27Z"
        transform="translate(0.26 -0.227)"/>
  <path class="a"
        d="M23.118,4.012l-1.531-1.5A15.973,15.973,0,0,0,17,13.744h2.142a13.836,13.836,0,0,1,3.976-9.731Z"
        transform="translate(-1.601 -1.964)"/>
  <path class="a"
        d="M44.56,28.773V13.78a11.78,11.78,0,1,0-23.56,0V28.773a11.78,11.78,0,1,0,23.56,0ZM32.78,38.411a9.649,9.649,0,0,1-9.638-9.638V13.78a9.638,9.638,0,1,1,19.276,0V28.773A9.649,9.649,0,0,1,32.78,38.411Z"
        transform="translate(-1.318 -2)"/>
  <path class="a"
        d="M32.5,9.284a1.071,1.071,0,0,1,0-2.142V5a3.213,3.213,0,0,0-3.213,3.213,3.178,3.178,0,0,0,.447,1.606,7.5,7.5,0,0,0,.524,14.113l-1.36,1.361a9.574,9.574,0,0,0-2.823,6.814v1.807h2.142V32.108a7.451,7.451,0,0,1,2.2-5.3l2.555-2.555A7.5,7.5,0,0,0,32.5,9.284Zm0,12.851A5.355,5.355,0,1,1,37.85,16.78,5.355,5.355,0,0,1,32.5,22.134Z"
        transform="translate(-1.034 -1.787)"/>
  <path class="a" d="M29,14h2.142v2.142H29Z" transform="translate(-0.751 -1.149)"/>
  <path class="a" d="M33,14h2.142v2.142H33Z" transform="translate(-0.467 -1.149)"/>
  <path class="a"
        d="M30.613,17.331l-1.6,1.426a4.284,4.284,0,0,0,6.388,0l-1.6-1.429a2.211,2.211,0,0,1-3.195,0Z"
        transform="translate(-0.749 -0.913)"/>
  <path class="a" d="M17,15h2.142v2.142H17Z" transform="translate(-1.601 -1.078)"/>
  <path class="a" d="M45,23h2.142v2.142H45Z" transform="translate(0.384 -0.511)"/>
</svg>
