<svg xmlns="http://www.w3.org/2000/svg" xmlns:xlink="http://www.w3.org/1999/xlink" width="62.947"
     height="60" viewBox="0 0 62.947 60">
  <defs>
    <style>.a{fill:url(#a);}</style>
    <linearGradient id="a" x1="0.5" x2="0.5" y2="1" gradientUnits="objectBoundingBox">
      <stop offset="0" stop-color="#d6277f"/>
      <stop offset="1" stop-color="#f6ca3a"/>
    </linearGradient>
  </defs>
  <path class="a"
        d="M62.2,19.543a4.945,4.945,0,1,0-8.4,0,1.229,1.229,0,0,0-.663,1.091v2.789H37.818a1.229,1.229,0,1,0,0,2.459H53.141v3.951H9.807V25.883H26.674a1.229,1.229,0,1,0,0-2.459H9.807V20.635a1.229,1.229,0,0,0-.663-1.091A4.945,4.945,0,1,0,0,16.932a4.917,4.917,0,0,0,.747,2.612,1.229,1.229,0,0,0-.663,1.091V70.757a1.229,1.229,0,0,0,1.229,1.229H8.577a1.229,1.229,0,0,0,1.229-1.229V66.093H53.141v4.663a1.229,1.229,0,0,0,1.229,1.229h7.264a1.229,1.229,0,0,0,1.229-1.229V20.635a1.229,1.229,0,0,0-.663-1.091Zm-4.2-5.1a2.487,2.487,0,0,1,.256,4.96h-.512A2.487,2.487,0,0,1,58,14.445ZM53.141,50.761h-3.4V32.292h3.4ZM47.285,32.292V50.761H44.14V32.292ZM36.277,50.761V32.292h5.4V50.761ZM33.818,32.292V50.761H30.673V32.292ZM22.81,50.761V32.292h5.4V50.761ZM20.352,32.292V50.761H17.207V32.292Zm-5.6,0V50.761H9.807V32.292Zm-9.8-17.848a2.487,2.487,0,0,1,.256,4.96H4.689a2.487,2.487,0,0,1,.256-4.96Zm2.4,55.082h-4.8V21.864h4.8ZM32.6,57.37a1.207,1.207,0,0,1,1.166-.583A1.648,1.648,0,0,1,35.508,58.6a2.89,2.89,0,0,1-.44,1.612A12.01,12.01,0,0,1,31.451,63.2a12.1,12.1,0,0,1-3.613-2.985A2.89,2.89,0,0,1,27.4,58.6a1.647,1.647,0,0,1,1.735-1.813,1.2,1.2,0,0,1,1.16.58,1.308,1.308,0,0,0,1.155.695h0A1.309,1.309,0,0,0,32.6,57.37Zm2.511,6.264a8.7,8.7,0,0,0,2.069-2.171,5.335,5.335,0,0,0,.782-2.863,4.1,4.1,0,0,0-4.2-4.272,3.8,3.8,0,0,0-2.319.713,3.881,3.881,0,0,0-2.321-.713A4.094,4.094,0,0,0,24.938,58.6a5.335,5.335,0,0,0,.783,2.863,8.618,8.618,0,0,0,2.064,2.171H9.807V53.22H53.141V63.634ZM60.4,69.527H55.6V21.864h4.8Z"
        transform="translate(0 -11.986)"/>
  <g transform="translate(31.041 11.442)">
    <path class="a" d="M253.71,107.5a1.229,1.229,0,1,1,1.215-1.049A1.241,1.241,0,0,1,253.71,107.5Z"
          transform="translate(-252.482 -105.049)"/>
  </g>
</svg>
