<svg xmlns="http://www.w3.org/2000/svg" xmlns:xlink="http://www.w3.org/1999/xlink" width="56.229"
     height="64.254" viewBox="0 0 56.229 64.254">
  <defs>
    <style>
      .a{fill:url(#a);}.b{fill:none;stroke:#000;stroke-linecap:round;stroke-linejoin:round;stroke-miterlimit:10;stroke-width:2px;}
    </style>
    <linearGradient id="a" x1="0.5" x2="0.5" y2="1" gradientUnits="objectBoundingBox">
      <stop offset="0" stop-color="#d6277f"/>
      <stop offset="1" stop-color="#f6ca3a"/>
    </linearGradient>
  </defs>
  <g transform="translate(8.026 48.184)">
    <path class="a"
          d="M9,54.017a1,1,0,0,1-1-1,5.026,5.026,0,0,1,5.02-5.02,1,1,0,0,1,0,2.008A3.016,3.016,0,0,0,10,53.013,1,1,0,0,1,9,54.017Z"
          transform="translate(-7.994 -47.993)"/>
  </g>
  <g transform="translate(50.205 48.184)">
    <path class="a"
          d="M55.026,54.017a1,1,0,0,1-1-1A3.016,3.016,0,0,0,51.01,50a1,1,0,0,1,0-2.008,5.026,5.026,0,0,1,5.02,5.02A1,1,0,0,1,55.026,54.017Z"
          transform="translate(-50.006 -47.993)"/>
  </g>
  <g transform="translate(0 0)">
    <path class="b"/>
  </g>
  <g transform="translate(0 0)">
    <path class="b"/>
  </g>
  <g transform="translate(54.221 52.2)">
    <path class="a"
          d="M55.01,62.036a1,1,0,0,1-1-1V53a1,1,0,1,1,2.008,0v8.035A1,1,0,0,1,55.01,62.036Z"
          transform="translate(-54.006 -51.993)"/>
  </g>
  <g transform="translate(10.036 62.244)">
    <path class="a" d="M53.175,64.006H11A1,1,0,0,1,11,62H53.175a1,1,0,0,1,0,2.008Z"
          transform="translate(-9.996 -61.998)"/>
  </g>
  <g transform="translate(8.026 52.2)">
    <path class="a" d="M9,62.038a1,1,0,0,1-1-1V53A1,1,0,0,1,10,53v8.037A1,1,0,0,1,9,62.038Z"
          transform="translate(-7.994 -51.993)"/>
  </g>
  <g transform="translate(8.026 60.236)">
    <path class="a"
          d="M11.008,64.016A3.018,3.018,0,0,1,7.994,61,1,1,0,0,1,10,61a1.006,1.006,0,0,0,1.006,1.006,1,1,0,1,1,0,2.008Z"
          transform="translate(-7.994 -59.998)"/>
  </g>
  <g transform="translate(52.211 60.234)">
    <path class="a"
          d="M53.008,64.014a1,1,0,1,1,0-2.008A1.006,1.006,0,0,0,54.014,61a1,1,0,1,1,2.008,0A3.018,3.018,0,0,1,53.008,64.014Z"
          transform="translate(-52.004 -59.996)"/>
  </g>
  <g transform="translate(50.201 3.015)">
    <path class="a"
          d="M51.006,38.131a1,1,0,0,1-1-1V4.007a1,1,0,1,1,2.008,0v33.12A1,1,0,0,1,51.006,38.131Z"
          transform="translate(-50.002 -3.003)"/>
  </g>
  <g transform="translate(12.044 3.014)">
    <path class="a" d="M13,38.131a1,1,0,0,1-1-1V4.006a1,1,0,1,1,2.008,0V37.127A1,1,0,0,1,13,38.131Z"
          transform="translate(-11.996 -3.002)"/>
  </g>
  <g transform="translate(12.044 0.005)">
    <path class="a"
          d="M13,5.022a1,1,0,0,1-1-1A4.018,4.018,0,0,1,16.01,0a1,1,0,0,1,0,2.008,2.008,2.008,0,0,0-2.006,2,1,1,0,0,1-1,1Z"
          transform="translate(-11.996 -0.005)"/>
  </g>
  <g transform="translate(47.185)">
    <path class="a"
          d="M51.018,5.023a1,1,0,0,1-1-1A2.013,2.013,0,0,0,48,2.008,1,1,0,0,1,48,0a4.024,4.024,0,0,1,4.02,4.019,1,1,0,0,1-1,1Z"
          transform="translate(-46.998 0)"/>
  </g>
  <g transform="translate(15.054 0.005)">
    <path class="a" d="M48.129,2.013H16A1,1,0,1,1,16,.005H48.129a1,1,0,0,1,0,2.008Z"
          transform="translate(-14.994 -0.005)"/>
  </g>
  <g transform="translate(8.026 36.142)">
    <path class="a"
          d="M9,54.067a1,1,0,0,1-1-1V39.011A3.016,3.016,0,0,1,11.006,36H17.04a1,1,0,1,1,0,2.008H11.006a1,1,0,0,0-1,1V53.063a1,1,0,0,1-1,1Z"
          transform="translate(-7.994 -35.999)"/>
  </g>
  <g transform="translate(16.066 36.14)">
    <path class="a"
          d="M17.006,50.047a1,1,0,0,1-1-1V37a1,1,0,1,1,2.008,0V49.043A1,1,0,0,1,17.006,50.047Z"
          transform="translate(-16.002 -35.997)"/>
  </g>
  <g transform="translate(46.179 36.142)">
    <path class="a"
          d="M55.042,54.067a1,1,0,0,1-1-1V39.011a1,1,0,0,0-1-1H47A1,1,0,1,1,47,36h6.034a3.016,3.016,0,0,1,3.012,3.012V53.063a1,1,0,0,1-1,1Z"
          transform="translate(-45.996 -35.999)"/>
  </g>
  <g transform="translate(46.181 36.14)">
    <path class="a" d="M47,50.047a1,1,0,0,1-1-1V37a1,1,0,0,1,2.008,0V49.043A1,1,0,0,1,47,50.047Z"
          transform="translate(-45.998 -35.997)"/>
  </g>
  <g transform="translate(16.066 12.044)">
    <path class="a"
          d="M45.117,30.068a1,1,0,1,1,0-2.008,1,1,0,0,0,1-1V15.008a1,1,0,0,0-1-1h-26.1a1,1,0,0,0-1,1V27.056a1,1,0,0,0,1,1,1,1,0,0,1,0,2.008A3.016,3.016,0,0,1,16,27.056V15.008A3.016,3.016,0,0,1,19.014,12h26.1a3.016,3.016,0,0,1,3.012,3.012V27.056A3.016,3.016,0,0,1,45.117,30.068Z"
          transform="translate(-16.002 -11.996)"/>
  </g>
  <g transform="translate(16.066 44.175)">
    <path class="a"
          d="M47.121,50.015H34.074a1,1,0,0,1,0-2.008H46.117v-2H18.01v2H30.058a1,1,0,1,1,0,2.008H17.006a1,1,0,0,1-1-1V45a1,1,0,0,1,1-1H47.121a1,1,0,0,1,1,1v4.007A1,1,0,0,1,47.121,50.015Z"
          transform="translate(-16.002 -44)"/>
  </g>
  <g transform="translate(16.066 26.099)">
    <path class="a"
          d="M17.006,38.045a1,1,0,0,1-1-1V27a1,1,0,1,1,2.008,0V37.041A1,1,0,0,1,17.006,38.045Z"
          transform="translate(-16.002 -25.996)"/>
  </g>
  <g transform="translate(46.185 26.099)">
    <path class="a"
          d="M47.006,38.045a1,1,0,0,1-1-1V27a1,1,0,0,1,2.008,0V37.041A1,1,0,0,1,47.006,38.045Z"
          transform="translate(-46.002 -25.996)"/>
  </g>
  <g transform="translate(29.118 47.186)">
    <path class="a"
          d="M34.023,59.047H30.007a1,1,0,0,1-1-1V48a1,1,0,0,1,1-1h4.016a1,1,0,0,1,1,1v10.04A1,1,0,0,1,34.023,59.047Zm-3.012-2.008h2.008V49.007H31.011Z"
          transform="translate(-29.003 -46.999)"/>
  </g>
  <g transform="translate(12.042 48.182)">
    <path class="a" d="M17.022,50H13a1,1,0,0,1,0-2.008h4.024a1,1,0,0,1,0,2.008Z"
          transform="translate(-11.994 -47.991)"/>
  </g>
  <g transform="translate(46.181 48.182)">
    <path class="a" d="M51.026,50H47a1,1,0,0,1,0-2.008h4.024a1,1,0,0,1,0,2.008Z"
          transform="translate(-45.998 -47.991)"/>
  </g>
  <g transform="translate(28.113 57.226)">
    <path class="a" d="M35.03,59.007H29.006a1,1,0,1,1,0-2.008H35.03a1,1,0,0,1,0,2.008Z"
          transform="translate(-28.002 -56.999)"/>
  </g>
  <g transform="translate(24.098 18.071)">
    <path class="a"
          d="M29.023,46.111H25.007a1,1,0,0,1-1-1V19a1,1,0,0,1,1-1h4.016a1,1,0,0,1,1,1v26.1A1,1,0,0,1,29.023,46.111ZM26.011,44.1h2.008v-24.1H26.011Z"
          transform="translate(-24.003 -17.999)"/>
  </g>
  <g transform="translate(34.136 18.071)">
    <path class="a"
          d="M39.021,46.111H35a1,1,0,0,1-1-1V19a1,1,0,0,1,1-1h4.016a1,1,0,0,1,1,1v26.1A1,1,0,0,1,39.021,46.111ZM36.009,44.1h2.008v-24.1H36.009Z"
          transform="translate(-34.001 -17.999)"/>
  </g>
  <g transform="translate(18.074 28.107)">
    <path class="a" d="M25.03,30H19.006a1,1,0,1,1,0-2.008H25.03a1,1,0,0,1,0,2.008Z"
          transform="translate(-18.002 -27.996)"/>
  </g>
  <g transform="translate(28.114 28.11)">
    <path class="a" d="M35.029,30.007H29.007a1,1,0,1,1,0-2.008h6.022a1,1,0,1,1,0,2.008Z"
          transform="translate(-28.003 -27.999)"/>
  </g>
  <g transform="translate(38.152 28.107)">
    <path class="a" d="M45.03,30H39A1,1,0,1,1,39,28H45.03a1,1,0,1,1,0,2.008Z"
          transform="translate(-38.001 -27.996)"/>
  </g>
  <g transform="translate(23.093 18.071)">
    <path class="a" d="M30.03,20.007H24.006a1,1,0,0,1,0-2.008H30.03a1,1,0,1,1,0,2.008Z"
          transform="translate(-23.002 -17.999)"/>
  </g>
  <g transform="translate(33.133 18.071)">
    <path class="a" d="M40.03,20.007H34.006a1,1,0,1,1,0-2.008H40.03a1,1,0,1,1,0,2.008Z"
          transform="translate(-33.002 -17.999)"/>
  </g>
  <g transform="translate(24.098 23.09)">
    <path class="a" d="M29.023,25.007H25.007a1,1,0,0,1,0-2.008h4.016a1,1,0,0,1,0,2.008Z"
          transform="translate(-24.003 -22.999)"/>
  </g>
  <g transform="translate(24.098 33.13)">
    <path class="a" d="M29.023,35.007H25.007a1,1,0,0,1,0-2.008h4.016a1,1,0,0,1,0,2.008Z"
          transform="translate(-24.003 -32.999)"/>
  </g>
  <g transform="translate(34.148 23.09)">
    <path class="a" d="M39.033,25.007H35.017a1,1,0,0,1,0-2.008h4.016a1,1,0,1,1,0,2.008Z"
          transform="translate(-34.013 -22.999)"/>
  </g>
  <g transform="translate(34.148 33.13)">
    <path class="a" d="M39.033,35.007H35.017a1,1,0,0,1,0-2.008h4.016a1,1,0,1,1,0,2.008Z"
          transform="translate(-34.013 -32.999)"/>
  </g>
</svg>
