<svg xmlns="http://www.w3.org/2000/svg" xmlns:xlink="http://www.w3.org/1999/xlink" width="76.131"
     height="77.46" viewBox="0 0 76.131 77.46">
  <defs>
    <style>.a{fill:url(#a);}</style>
    <linearGradient id="a" x1="0.5" x2="0.5" y2="1" gradientUnits="objectBoundingBox">
      <stop offset="0" stop-color="#d6277f"/>
      <stop offset="1" stop-color="#f6ca3a"/>
    </linearGradient>
  </defs>
  <g transform="translate(0 0)">
    <path class="a"
          d="M31.3,42.086a13.059,13.059,0,0,1-1.646-.1l-5.613-.7c-.013,0-.027,0-.039-.005l-.019,0a1.322,1.322,0,0,1-.959-.682L19.444,35.4a1.29,1.29,0,0,1,.334-1.8L68.425.317a1.415,1.415,0,0,1,1.6.05,1.414,1.414,0,0,1,.432,1.554C65.206,15.828,57.367,26.228,45.79,34.649L39.024,39.57A13.119,13.119,0,0,1,31.3,42.086Zm-6.385-3.3,5.058.631a10.531,10.531,0,0,0,7.53-1.94l6.766-4.921A65.333,65.333,0,0,0,66.528,4.739L22.3,35Z"
          transform="translate(5.592 0.027)"/>
    <path class="a"
          d="M2.8,51.844a2.8,2.8,0,0,1-2.8-2.8v-4.1a2.8,2.8,0,0,1,1.217-2.31l24.112-16.5a1.291,1.291,0,0,1,1.792.333L30.8,31.8a1.291,1.291,0,0,1-.565,1.924L4.375,51.356a2.8,2.8,0,0,1-1.576.488ZM25.726,29,2.676,44.767a.215.215,0,0,0-.094.178v4.1a.215.215,0,0,0,.337.178l25-17.045Z"
          transform="translate(0 7.541)"/>
    <path class="a"
          d="M40.1,77.46H38.183A6.782,6.782,0,0,1,31.509,71.9a4.583,4.583,0,0,1,.195-2.332l.8-2.31a2.042,2.042,0,0,0-1.931-2.714H18.662a6.64,6.64,0,0,1-6.632-6.633V48.847a1.29,1.29,0,0,1,.564-1.066l11.823-8.062-2.193-3.182L14.05,42.13a1.291,1.291,0,0,1-2.02-1.065V6.633A6.642,6.642,0,0,1,18.663,0H59.62a6.6,6.6,0,0,1,6.529,5.558A1.289,1.289,0,0,1,65.6,6.832L24.4,35.029l2.61,3.789,5.058.631a10.531,10.531,0,0,0,7.53-1.94l6.766-4.921.759,1.044-.759-1.044A65.151,65.151,0,0,0,63.864,13.9a1.291,1.291,0,0,1,2.39.678V57.915a6.641,6.641,0,0,1-6.633,6.633H47.707a2.043,2.043,0,0,0-1.93,2.716l.8,2.31a4.579,4.579,0,0,1,.195,2.33A6.783,6.783,0,0,1,40.1,77.46ZM14.613,49.529v8.388a4.055,4.055,0,0,0,4.05,4.051H30.578a4.626,4.626,0,0,1,4.367,6.146l-.8,2.31a2,2,0,0,0-.093,1.016,4.2,4.2,0,0,0,4.135,3.438H40.1a4.2,4.2,0,0,0,4.135-3.439,2.008,2.008,0,0,0-.094-1.015l-.8-2.31a4.626,4.626,0,0,1,4.369-6.146H59.62a4.055,4.055,0,0,0,4.051-4.051V18.861a68.3,68.3,0,0,1-15.79,15.813L41.115,39.6a13.1,13.1,0,0,1-9.37,2.414l-5.159-.644Zm4.05-46.947a4.054,4.054,0,0,0-4.05,4.051V38.616l7.081-4.845a1.248,1.248,0,0,1,.174-.142L63.4,5.212a4.017,4.017,0,0,0-3.779-2.63Z"
          transform="translate(3.501 0)"/>
    <path class="a"
          d="M52.178,41.582H39.268a1.291,1.291,0,1,1,0-2.582h12.91a1.291,1.291,0,0,1,0,2.582Z"
          transform="translate(11.051 11.349)"/>
    <path class="a"
          d="M43.268,42.455a1.291,1.291,0,0,1-.913-2.2l3.873-3.873A1.291,1.291,0,0,1,48.054,38.2l-3.873,3.873A1.292,1.292,0,0,1,43.268,42.455Z"
          transform="translate(12.215 10.476)"/>
    <path class="a"
          d="M42,47.91a3.587,3.587,0,0,1-.372-.019l-6.392-.527-.067-.008c-16.8-2.273-18.189-4.09-18.189-5.9s1.392-3.628,18.189-5.9l6.483-.537a3.959,3.959,0,0,1,3.025,1.064,6.807,6.807,0,0,1,2,5.025v.7a6.807,6.807,0,0,1-2,5.025A3.994,3.994,0,0,1,42,47.91ZM35.48,44.793l6.383.525a1.344,1.344,0,0,0,1.082-.405,4.274,4.274,0,0,0,1.146-3.107v-.7A4.274,4.274,0,0,0,42.944,38a1.36,1.36,0,0,0-1.057-.408l-6.441.532c-11.146,1.508-14.537,2.752-15.56,3.333,1.024.58,4.418,1.824,15.594,3.339Z"
          transform="translate(4.94 10.185)"/>
    <path class="a"
          d="M34.268,41.4a1.291,1.291,0,0,1-1.291-1.291V36.481a1.291,1.291,0,1,1,2.582,0v3.628A1.291,1.291,0,0,1,34.268,41.4Z"
          transform="translate(9.596 10.24)"/>
    <path class="a"
          d="M26.268,45.176a1.291,1.291,0,0,1-1.291-1.291V40.291a1.291,1.291,0,1,1,2.582,0v3.594A1.291,1.291,0,0,1,26.268,45.176Z"
          transform="translate(7.268 11.349)"/>
    <path class="a"
          d="M26.195,18.328a5.164,5.164,0,1,1,5.164-5.164,1.291,1.291,0,1,1-2.582,0,2.582,2.582,0,1,0-2.582,2.582,1.291,1.291,0,0,1,0,2.582Z"
          transform="translate(6.12 2.328)"/>
    <path class="a"
          d="M27.359,24.656A10.328,10.328,0,1,1,37.687,14.328a1.291,1.291,0,1,1-2.582,0,7.746,7.746,0,1,0-7.746,7.746,1.291,1.291,0,1,1,0,2.582Z"
          transform="translate(4.956 1.164)"/>
    <path class="a"
          d="M47.141,45.455a1.287,1.287,0,0,1-.913-.378L42.355,41.2a1.291,1.291,0,0,1,1.825-1.825l3.873,3.873a1.291,1.291,0,0,1-.913,2.2Z"
          transform="translate(12.215 11.349)"/>
  </g>
</svg>
