<svg xmlns="http://www.w3.org/2000/svg" xmlns:xlink="http://www.w3.org/1999/xlink" width="63.224"
     height="59.155" viewBox="0 0 63.224 59.155">
  <defs>
    <style>.a{fill:url(#a);}</style>
    <linearGradient id="a" x1="0.5" x2="0.5" y2="1" gradientUnits="objectBoundingBox">
      <stop offset="0" stop-color="#d6277f"/>
      <stop offset="1" stop-color="#f6ca3a"/>
    </linearGradient>
  </defs>
  <g transform="translate(0.001 -16.46)">
    <path class="a"
          d="M315.384,151.263a.927.927,0,0,0,.405-.093c.211-.1,5.16-2.554,4.656-6.239a3.058,3.058,0,0,0-2.825-2.813,3.222,3.222,0,0,0-2.236.632,3.225,3.225,0,0,0-2.236-.632,3.058,3.058,0,0,0-2.825,2.813c-.5,3.685,4.445,6.137,4.656,6.239A.925.925,0,0,0,315.384,151.263Zm-3.224-6.081a1.233,1.233,0,0,1,1.143-1.217c.042,0,.083-.005.125-.005a1.1,1.1,0,0,1,1.072.588.927.927,0,0,0,1.769,0,1.148,1.148,0,0,1,1.2-.582,1.233,1.233,0,0,1,1.144,1.217c.239,1.744-1.959,3.385-3.218,4.1C314.395,148.706,311.9,147.061,312.16,145.181Z"
          transform="translate(-271.94 -110.117)"/>
    <path class="a"
          d="M113.613,138.326h7.365a.927.927,0,0,0,.927-.927V108a.927.927,0,0,0-.927-.927h-42.1a.927.927,0,0,0-.927.927v29.4a.927.927,0,0,0,.927.927h31.031a.927.927,0,0,0,0-1.854H79.8V108.93h40.249v27.542h-6.438a.927.927,0,0,0,0,1.854Z"
          transform="translate(-68.315 -79.417)"/>
    <path class="a"
          d="M63.176,58.364,57.567,41.77V24.254a.927.927,0,0,0-.927-.927H51.333L49.225,17.09a.927.927,0,0,0-1.175-.581L27.877,23.327H17.4a.927.927,0,1,0,0,1.854H55.713V66.895H21.129a.927.927,0,0,0,0,1.854h8.428l-14.1,4.766-1.611-4.766h3.574a.927.927,0,1,0,0-1.854H7.51V25.181h6.178a.927.927,0,0,0,0-1.854h-7.1a.927.927,0,0,0-.927.927v6.584l-5.028,1.7a.936.936,0,0,0-.581,1.175L5.656,50.306V67.822a.927.927,0,0,0,.927.927H11.89L14,74.986a.936.936,0,0,0,1.175.581l20.173-6.819H56.64a.927.927,0,0,0,.927-.927V61.238l5.028-1.7A.936.936,0,0,0,63.176,58.364ZM33.667,23.327l14.1-4.766,1.611,4.766ZM2.1,34l3.556-1.2V44.517ZM57.567,59.281V47.559l3.556,10.52Z"
          transform="translate(0 0)"/>
    <path class="a"
          d="M183.323,246.5a1.446,1.446,0,1,0-1.446-1.446A1.448,1.448,0,0,0,183.323,246.5Z"
          transform="translate(-159.4 -199.075)"/>
    <path class="a" d="M246.2,246.5a1.446,1.446,0,1,0-1.446-1.446A1.448,1.448,0,0,0,246.2,246.5Z"
          transform="translate(-214.504 -199.075)"/>
    <path class="a"
          d="M120.8,147.622a3.138,3.138,0,1,0,1.821,5.969,10.643,10.643,0,0,0,17.659,0,3.138,3.138,0,1,0,1.821-5.969A10.661,10.661,0,0,0,131.777,137a7.122,7.122,0,0,1,.026-2.2.927.927,0,1,0-1.81-.4,7.672,7.672,0,0,0-.127,1.991,3.459,3.459,0,0,1-1.386-2.026.927.927,0,0,0-1.829.305,5.308,5.308,0,0,0,1.607,2.806A10.67,10.67,0,0,0,120.8,147.622Zm.595,4.366a1.284,1.284,0,0,1-.43-2.494,10.553,10.553,0,0,0,.748,2.452A1.262,1.262,0,0,1,121.395,151.988Zm21.4-1.285a1.286,1.286,0,0,1-1.285,1.285,1.269,1.269,0,0,1-.317-.042,10.556,10.556,0,0,0,.748-2.452A1.286,1.286,0,0,1,142.791,150.7Zm-11.34-11.859a8.8,8.8,0,1,1-8.8,8.8A8.807,8.807,0,0,1,131.45,138.844Z"
          transform="translate(-103.641 -102.661)"/>
  </g>
</svg>
