<svg id="Instagram" xmlns="http://www.w3.org/2000/svg" xmlns:xlink="http://www.w3.org/1999/xlink"
     width="49.205" height="49.205" viewBox="0 0 49.205 49.205">
  <defs>
    <radialGradient id="radial-gradient" cx="0.205" cy="0.874" r="1.103"
                    gradientTransform="translate(0)" gradientUnits="objectBoundingBox">
      <stop offset="0" stop-color="#fae100"/>
      <stop offset="0.054" stop-color="#fadc04"/>
      <stop offset="0.117" stop-color="#fbce0e"/>
      <stop offset="0.183" stop-color="#fcb720"/>
      <stop offset="0.251" stop-color="#fe9838"/>
      <stop offset="0.305" stop-color="#ff7950"/>
      <stop offset="0.492" stop-color="#ff1c74"/>
      <stop offset="1" stop-color="#6c1cd1"/>
    </radialGradient>
    <linearGradient id="linear-gradient" x1="0.369" y1="0.426" x2="-1.54" y2="-0.648"
                    gradientUnits="objectBoundingBox">
      <stop offset="0" stop-color="#a1b5d8" stop-opacity="0"/>
      <stop offset="0.309" stop-color="#90a2bd" stop-opacity="0.31"/>
      <stop offset="0.755" stop-color="#7c8b9c" stop-opacity="0.757"/>
      <stop offset="1" stop-color="#748290"/>
    </linearGradient>
    <linearGradient id="linear-gradient-2" x1="0.5" y1="0.413" x2="0.5" y2="1.193"
                    gradientUnits="objectBoundingBox">
      <stop offset="0" stop-color="#fae100" stop-opacity="0"/>
      <stop offset="0.307" stop-color="#fca800" stop-opacity="0.306"/>
      <stop offset="0.627" stop-color="#fe7300" stop-opacity="0.627"/>
      <stop offset="0.868" stop-color="#ff5200" stop-opacity="0.867"/>
      <stop offset="1" stop-color="#ff4500"/>
    </linearGradient>
    <linearGradient id="linear-gradient-3" x1="0.316" y1="0.311" x2="0.012" y2="0.005"
                    gradientUnits="objectBoundingBox">
      <stop offset="0" stop-color="#833ab4" stop-opacity="0"/>
      <stop offset="1" stop-color="#833ab4"/>
    </linearGradient>
    <linearGradient id="linear-gradient-4" x1="0.582" y1="0.887" x2="0.418" y2="0.113"
                    xlink:href="#linear-gradient-3"/>
    <linearGradient id="linear-gradient-5" x1="0.605" y1="0.605" x2="-0.16" y2="-0.16"
                    xlink:href="#linear-gradient-3"/>
    <linearGradient id="linear-gradient-6" x1="0.376" y1="0.332" x2="-0.072" y2="-0.063"
                    xlink:href="#linear-gradient-3"/>
    <linearGradient id="linear-gradient-7" x1="0.816" y1="0.182" x2="0.172" y2="0.835"
                    gradientUnits="objectBoundingBox">
      <stop offset="0" stop-color="#833ab4"/>
      <stop offset="0.092" stop-color="#9c3495"/>
      <stop offset="0.293" stop-color="#dc2546"/>
      <stop offset="0.392" stop-color="#fd1d1d"/>
      <stop offset="0.559" stop-color="#fc6831"/>
      <stop offset="0.689" stop-color="#fc9b40"/>
      <stop offset="0.752" stop-color="#fcaf45"/>
      <stop offset="0.781" stop-color="#fdb750"/>
      <stop offset="0.866" stop-color="#fecb6a"/>
      <stop offset="0.942" stop-color="#ffd87a"/>
      <stop offset="1" stop-color="#ffdc80"/>
    </linearGradient>
  </defs>
  <g id="icon-instagram" transform="translate(1.503 1.946)">
    <path id="Path_18" data-name="Path 18"
          d="M6.738,46H39.262A6.746,6.746,0,0,0,46,39.262V6.738A6.746,6.746,0,0,0,39.262,0H6.738A6.746,6.746,0,0,0,0,6.738V39.262A6.746,6.746,0,0,0,6.738,46ZM2.7,6.738A4.048,4.048,0,0,1,6.738,2.7H39.262A4.048,4.048,0,0,1,43.3,6.738V39.262A4.048,4.048,0,0,1,39.262,43.3H6.738A4.048,4.048,0,0,1,2.7,39.262Zm0,0"
          fill="#fff"/>
    <path id="Path_19" data-name="Path 19"
          d="M133.129,145.258A12.129,12.129,0,1,0,121,133.129,12.143,12.143,0,0,0,133.129,145.258Zm0-21.562a9.434,9.434,0,1,1-9.434,9.434A9.444,9.444,0,0,1,133.129,123.7Zm0,0"
          transform="translate(-110.129 -110.129)" fill="#fff"/>
    <path id="Path_20" data-name="Path 20"
          d="M365.043,69.086A4.043,4.043,0,1,0,361,65.043,4.048,4.048,0,0,0,365.043,69.086Zm0-5.391a1.348,1.348,0,1,1-1.348,1.348A1.349,1.349,0,0,1,365.043,63.7Zm0,0"
          transform="translate(-328.566 -55.52)" fill="#fff"/>
  </g>
  <g id="icon-instagram_color" data-name="icon-instagram color" transform="translate(0.001 0)"
     opacity="0">
    <path id="Path_23" data-name="Path 23"
          d="M48.362,8.8A8.959,8.959,0,0,0,40.4.842a148.617,148.617,0,0,0-31.6,0A8.96,8.96,0,0,0,.842,8.8a148.617,148.617,0,0,0,0,31.6A8.96,8.96,0,0,0,8.8,48.363a148.62,148.62,0,0,0,31.6,0A8.959,8.959,0,0,0,48.362,40.4a148.616,148.616,0,0,0,0-31.6Zm0,0"
          transform="translate(0 0)" fill="url(#radial-gradient)"/>
    <path id="Path_24" data-name="Path 24"
          d="M71.749,36.644a7.95,7.95,0,0,0-7.062-7.062,131.93,131.93,0,0,0-28.044,0,7.951,7.951,0,0,0-7.062,7.062,131.926,131.926,0,0,0,0,28.043,7.951,7.951,0,0,0,7.062,7.062,131.878,131.878,0,0,0,28.043,0,7.95,7.95,0,0,0,7.062-7.062,131.879,131.879,0,0,0,0-28.043Zm0,0"
          transform="translate(-26.063 -26.063)" fill="url(#linear-gradient)"/>
    <path id="Path_25" data-name="Path 25"
          d="M7.672,409.805q.051.51.105,1.02a8.96,8.96,0,0,0,7.959,7.959,148.623,148.623,0,0,0,31.6,0,8.959,8.959,0,0,0,7.959-7.959q.055-.51.105-1.02Zm0,0"
          transform="translate(-6.935 -370.421)" fill="url(#linear-gradient-2)"/>
    <path id="Path_26" data-name="Path 26"
          d="M134.314,128.369a148.737,148.737,0,0,0,.837-16.981L123.9,100.14a8.056,8.056,0,0,0-5.869-2.692c-4.959-.179-9.935-.17-14.895,0-4.12.142-7,2.911-7.739,6.981-.13.719-.208,1.446-.311,2.17v11.931c.057.387.14.771.166,1.16a8.674,8.674,0,0,0,2.811,6.03l11.445,11.445a148.756,148.756,0,0,0,16.843-.839,8.959,8.959,0,0,0,7.959-7.959Zm0,0"
          transform="translate(-85.952 -87.965)" fill="url(#linear-gradient-3)"/>
    <path id="Path_27" data-name="Path 27"
          d="M162.483,154.987a8.96,8.96,0,0,1-7.959,7.959,148.834,148.834,0,0,1-16.843.839l-11.428-11.428a8.013,8.013,0,0,0,5.056,1.941c4.959.186,9.935.181,14.895,0a7.97,7.97,0,0,0,7.871-7.967c.149-4.762.149-9.537,0-14.3a8.3,8.3,0,0,0-1.995-5.268l11.24,11.24a149.012,149.012,0,0,1-.838,16.981Zm0,0"
          transform="translate(-114.121 -114.583)" fill="url(#linear-gradient-4)"/>
    <path id="Path_28" data-name="Path 28"
          d="M187.679,176.546a7.88,7.88,0,1,0-11.134,11.134l18.234,18.235q1.448-.126,2.895-.28a8.96,8.96,0,0,0,7.959-7.959q.154-1.447.28-2.895Zm0,0"
          transform="translate(-157.271 -157.271)" fill="url(#linear-gradient-5)"/>
    <path id="Path_29" data-name="Path 29"
          d="M341.326,166.158l-14.675-14.675a1.873,1.873,0,1,0-2.624,2.624l17.037,17.038Q341.237,168.652,341.326,166.158Zm0,0"
          transform="translate(-292.217 -136.255)" fill="url(#linear-gradient-6)"/>
    <path id="Path_30" data-name="Path 30"
          d="M95.09,106.6c.1-.724.181-1.452.311-2.17.738-4.07,3.62-6.839,7.739-6.981,4.96-.17,9.935-.179,14.895,0a7.971,7.971,0,0,1,7.871,7.967q.224,7.144,0,14.3a7.97,7.97,0,0,1-7.871,7.967c-4.959.179-9.936.184-14.895,0-4.485-.169-7.585-3.5-7.885-7.988-.026-.389-.109-.774-.166-1.16V106.6Zm15.468,18.424c2.27,0,4.542.068,6.808-.016,3.554-.132,5.74-2.253,5.823-5.8q.154-6.636,0-13.279c-.083-3.55-2.27-5.72-5.823-5.8q-6.763-.143-13.532,0c-3.525.074-5.718,2.2-5.814,5.711q-.182,6.72,0,13.448c.1,3.51,2.288,5.588,5.814,5.719,2.238.083,4.482.016,6.723.016Zm0,0"
          transform="translate(-85.952 -87.964)" fill="url(#linear-gradient-7)"/>
    <g id="Group_6" data-name="Group 6" transform="translate(9.138 9.352)">
      <path id="Path_31" data-name="Path 31"
            d="M95.09,106.6c.1-.724.181-1.452.311-2.17.738-4.07,3.62-6.839,7.739-6.981,4.96-.17,9.935-.179,14.895,0a7.971,7.971,0,0,1,7.871,7.967q.224,7.144,0,14.3a7.97,7.97,0,0,1-7.871,7.967c-4.959.179-9.936.184-14.895,0-4.485-.169-7.585-3.5-7.885-7.988-.026-.389-.109-.774-.166-1.16V106.6Zm15.468,18.424c2.27,0,4.542.068,6.808-.016,3.554-.132,5.74-2.253,5.823-5.8q.154-6.636,0-13.279c-.083-3.55-2.27-5.72-5.823-5.8q-6.763-.143-13.532,0c-3.525.074-5.718,2.2-5.814,5.711q-.182,6.72,0,13.448c.1,3.51,2.288,5.588,5.814,5.719,2.238.083,4.482.016,6.723.016Zm0,0"
            transform="translate(-95.09 -97.317)" fill="#fff"/>
      <path id="Path_32" data-name="Path 32"
            d="M181.873,174a7.881,7.881,0,1,0,7.881,7.881A7.881,7.881,0,0,0,181.873,174Zm0,13.049a5.168,5.168,0,1,1,5.168-5.168A5.168,5.168,0,0,1,181.873,187.045Zm0,0"
            transform="translate(-166.409 -166.627)" fill="#fff"/>
      <path id="Path_33" data-name="Path 33"
            d="M327.035,152.617a1.875,1.875,0,1,1-1.875-1.875A1.875,1.875,0,0,1,327.035,152.617Zm0,0"
            transform="translate(-301.355 -145.608)" fill="#fff"/>
    </g>
  </g>
</svg>
