<svg xmlns="http://www.w3.org/2000/svg" width="91.451" height="90.903" viewBox="0 0 91.451 90.903">
  <defs>
    <style>.a{fill:white}</style>
  </defs>
  <g transform="translate(-0.813 -1)">
    <path class="a"
          d="M47.681,35A18.681,18.681,0,1,0,66.363,53.681,18.7,18.7,0,0,0,47.681,35Zm0,34.249A15.568,15.568,0,1,1,63.249,53.681,15.585,15.585,0,0,1,47.681,69.249Z"
          transform="translate(12.378 14.923)"/>
    <path class="a"
          d="M41,53.175v3.383a13.591,13.591,0,0,0,3.906-.572l-.974-3.24A10.194,10.194,0,0,1,41,53.175Z"
          transform="translate(20.454 25.345)"/>
    <path class="a"
          d="M41,39v3.209c4.686,0,8.5,4.318,8.5,9.627a10.008,10.008,0,0,1-3.811,8.033l1.564,2.675a13.338,13.338,0,0,0,5.08-10.708C52.33,44.758,47.247,39,41,39Z"
          transform="matrix(0.996, 0.087, -0.087, 0.996, 26.093, 13.225)"/>
    <path class="a"
          d="M41.814,26.814a10.914,10.914,0,0,0-6.4-9.921,6.817,6.817,0,1,0-9.012,0A10.914,10.914,0,0,0,20,26.814V29.54H41.814Zm-15-15a4.09,4.09,0,1,1,4.09,4.09A4.1,4.1,0,0,1,26.817,11.817Zm-4.09,15a8.18,8.18,0,0,1,16.36,0Z"
          transform="translate(12.031)"/>
    <path class="a" d="M38,5h6V7H38Z" transform="translate(19.181 2)"/>
    <path class="a" d="M38,9h6v2H38Z" transform="translate(19.181 4)"/>
    <path class="a" d="M38,13h6v2H38Z" transform="translate(19.181 5.781)"/>
    <path class="a" d="M38,17h6v2H38Z" transform="translate(19.181 7.707)"/>
    <path class="a" d="M38,21h6v2H38Z" transform="translate(19.181 9.634)"/>
    <path class="a" d="M0,0H2V6H0Z" transform="translate(79.237 19.825) rotate(-77.993)"/>
    <path class="a" d="M0,0H2V6H0Z" transform="translate(78.405 25.662) rotate(-77.993)"/>
    <path class="a" d="M0,0H2V6H0Z" transform="translate(77.572 31.496) rotate(-77.993)"/>
    <path class="a" d="M0,0H2V6H0Z" transform="translate(76.741 37.334) rotate(-77.993)"/>
    <path class="a" d="M0,0H2V6H0Z" transform="translate(75.902 42.164) rotate(-77.993)"/>
    <path class="a"
          d="M92.264,14.88,70,10.147V1H23.08v9.147L.813,14.88l9.828,46.233H8.418a7.331,7.331,0,1,0,0,14.662H30.411V72.843H36.7A23.448,23.448,0,1,0,82.25,61.914Zm-3.481,2.258-8.5,40.008A23.589,23.589,0,0,0,70,47.382V13.146ZM67.065,3.932V46.174a23.064,23.064,0,0,0-2.932-.761V36.188H28.945V58.181h9.728A23.258,23.258,0,0,0,36.7,64.046H30.411V61.113h-4.4V3.932ZM40.354,55.249H31.877V39.121H61.2V45.06c-.487-.031-.971-.075-1.466-.075A23.445,23.445,0,0,0,40.354,55.249ZM19.636,61.113l-2.29-10.775L23.08,49.12V61.113Zm-2.893-26A8.739,8.739,0,0,1,22.292,31.3c.255-.054.522-.084.787-.113v8.939l-7.563,1.608A8.741,8.741,0,0,1,16.743,35.114Zm1.629-7.294a4.374,4.374,0,1,1,4.708-7.373V27.81a4.175,4.175,0,0,1-1.4.622A4.376,4.376,0,0,1,18.372,27.819ZM4.294,17.138,23.08,13.146v4.048a7.2,7.2,0,0,0-3.837-.235,7.33,7.33,0,0,0-2.466,13.317c.12.078.248.135.371.205a11.7,11.7,0,0,0-4.5,11.86l.607,2.871,9.823-2.089v3L13.866,48.08l2.77,13.033h-3Zm23.185,55.7H8.418a4.4,4.4,0,1,1,0-8.8h19.06Zm2.932-2.932V66.978H36.35c-.031.487-.075.971-.075,1.466s.044.979.075,1.466Zm29.324,19.06A20.526,20.526,0,1,1,80.261,68.444,20.549,20.549,0,0,1,59.734,88.971Z"/>
  </g>
</svg>
