<svg xmlns="http://www.w3.org/2000/svg" xmlns:xlink="http://www.w3.org/1999/xlink" width="67.672"
     height="67.742" viewBox="0 0 67.672 67.742">
  <defs>
    <style>.a{fill:url(#a);}</style>
    <linearGradient id="a" x1="0.5" x2="0.5" y2="1" gradientUnits="objectBoundingBox">
      <stop offset="0" stop-color="#d6277f"/>
      <stop offset="1" stop-color="#f6ca3a"/>
    </linearGradient>
  </defs>
  <g transform="translate(-0.265 0)">
    <path class="a"
          d="M67.308,28.093V24.126A14.843,14.843,0,0,0,52.688,9.312L44,9.309a2.757,2.757,0,0,1-2.757-2.751V.992a.992.992,0,1,0-1.985,0V6.558A4.744,4.744,0,0,0,44,11.294h8.472a13.031,13.031,0,0,1,12.851,13.18,11.711,11.711,0,0,0-2.595-2.383c-.661-.444.1-1.3.626-1.448a1,1,0,0,0,.128-1.875c-3.256-1.362-5.6-.182-6.8,1.317A11.926,11.926,0,0,0,50.132,21.7a11.715,11.715,0,0,0-4.911,5.618L43.7,30.94a11.737,11.737,0,0,0-.038,9.048l0,0-5,.229c-.053,0-.2.026-.182-.08l1.481-9.113c.877-4.088-5.45-5.376-6.294-1.313L32.583,35.52a41.175,41.175,0,0,1-6.932-15.744c-.263-1.176-.469-2.292-.631-3.316h2.163a1.5,1.5,0,0,1,1.221.631l.827,1.166a.993.993,0,0,0,1.619-1.148l-.827-1.166a3.488,3.488,0,0,0-2.84-1.467h-2.44c-.173-1.437-.252-2.581-.287-3.305a4.744,4.744,0,0,0,3.667-4.612V.992a.992.992,0,0,0-1.985,0V6.558a2.757,2.757,0,0,1-2.757,2.751H15.1a14.809,14.809,0,0,0-3.278.367.993.993,0,0,0,.44,1.935,12.817,12.817,0,0,1,2.838-.317h7.372a54,54,0,0,0,1.23,8.865c1.993,8.965,5.608,14.658,8.408,17.934l-.946,5.158c-.475,2.628,1.646,4.488,4.049,4.791a24.68,24.68,0,0,1-6.155,1.671c2.1-7.308,1.056-11.061-.239-12.94a6.582,6.582,0,0,0-5.368-2.738c-2.894-.162-6.161,2.219-9.711,7.081-.336.461-.658.921-.965,1.373V26.264a.993.993,0,0,0-1.985,0V32.33H2.25v-8.2A12.886,12.886,0,0,1,7.58,13.738a.993.993,0,0,0-1.165-1.607A14.875,14.875,0,0,0,.265,24.126V47.6A20.181,20.181,0,0,0,20.437,67.742h26.7A20.09,20.09,0,0,0,58.414,64.3a.993.993,0,0,0-1.11-1.645,18.113,18.113,0,0,1-10.168,3.1H29.346c-5.157,0-5.165-8.023,0-8.023H46.311a10.475,10.475,0,0,0,10.47-10.457,11.97,11.97,0,0,0,4.433-2,12.8,12.8,0,0,0,4.109-4.79V47.6a18.118,18.118,0,0,1-4.59,12.061.993.993,0,0,0,1.482,1.32A20.1,20.1,0,0,0,67.308,47.6V35.8c0-.031,0-.062,0-.092a11.818,11.818,0,0,0,0-7.619Zm-6.6-7.948.153,0a2.52,2.52,0,0,0,.191,3.041,2.186,2.186,0,0,1,.242.384.164.164,0,0,1-.012.035h0a1.728,1.728,0,0,1-2.394.811,1.9,1.9,0,0,1-1.02-2.485A3.082,3.082,0,0,1,60.7,20.145ZM35.62,30.105c.327-1.575,2.645-.951,2.394.574L37.8,32l-2.46-.434Zm-19.1,19.822q-.065.339-.121.691a17.264,17.264,0,0,0-.2,3.453,8.613,8.613,0,0,1-1.839-1.87C15.124,51.491,16.026,50.489,16.519,49.927Zm-4.006,1.236a1,1,0,0,0-.1.074c-.132.094-.26.185-.38.272a3.162,3.162,0,0,1-1.248.705,5.129,5.129,0,0,1-2.445-2.169A10.8,10.8,0,0,1,7.162,48l.14.063.126.057.159.078.137.067.177.093.136.071.2.109.131.072c.073.041.146.085.22.128L8.7,48.8c.081.048.162.1.243.148l.1.059c.1.06.19.121.284.183l.053.034q.168.11.331.224a.956.956,0,0,0,.09.056l.044.021c.017.008.034.017.051.025l.047.017c.017.006.034.013.052.018l.046.011.056.013.044.006.061.008h.041c.021,0,.043,0,.064,0l.041,0c.022,0,.043,0,.065-.006l.043-.008c.019,0,.037-.006.055-.01l.005,0h.005l.042-.013.055-.017.044-.019.053-.023.041-.023c.017-.009.034-.018.05-.029l.038-.027c.016-.011.032-.022.047-.034l.035-.031c.015-.013.03-.025.043-.039L11,49.312c.013-.014.026-.028.039-.043l.029-.038c.012-.015.023-.031.034-.047s.017-.028.025-.042.017-.026.024-.04c.256-.484.632-1.182.947-1.745l2.52,1.711a24.51,24.51,0,0,1-2.105,2.094ZM2.25,47.6V34.315h8.542V45.644c-.36.614-.66,1.152-.889,1.572l-.116-.07L9.7,47.095l-.072-.042-.143-.085-.011-.006c-.142-.083-.291-.167-.443-.25-1.584-.865-2.574-1.1-3.309-.786l-.048.022a1.262,1.262,0,0,0-.689.891h0c-.01.044-.018.091-.024.14,0,.011,0,.022,0,.034,0,.041-.008.083-.01.127,0,.018,0,.037,0,.055,0,.043,0,.088,0,.133,0,.018,0,.036,0,.055,0,.057.01.117.018.178,0,0,0,.005,0,.008v0c0,.028.006.055.011.084.3,1.787,2.987,6.269,5.565,6.527l.026,0a3.218,3.218,0,0,0,2.23-.752,10.6,10.6,0,0,0,3.726,3.168A13.746,13.746,0,0,0,19.783,62.9,13.439,13.439,0,0,0,23.5,65.757h-3.06A18.194,18.194,0,0,1,2.25,47.6Zm44.062,8.153H29.346a6.056,6.056,0,0,0-5.735,7.771,10.918,10.918,0,0,1-2.313-1.9l-.03-.035a12.317,12.317,0,0,1-2.919-10.6,18.687,18.687,0,0,1,1.8-5.6.994.994,0,0,0-1.67-1.066c-.013.018-1.119,1.536-2.55,3.244l-2.823-1.917c.636-1.039,1.4-2.213,2.25-3.375,3.034-4.15,5.871-6.373,7.982-6.251A4.643,4.643,0,0,1,27.186,37.9c1.571,2.28,1.436,6.687-.381,12.408-.207.65,0,1.691.971,1.578a26.241,26.241,0,0,0,10.464-3.13l3.859.911a.994.994,0,0,0,.456-1.932L34.6,45.857a1.957,1.957,0,0,1-1.48-2.25l1.85-10.088,2.509.442-.95,5.872A2.117,2.117,0,0,0,38.8,42.2l5.882-.27a11.723,11.723,0,0,0,5.356,4.476l.013.006a11.743,11.743,0,0,0,4.541.915c.069,0,.137,0,.205,0A8.488,8.488,0,0,1,46.311,55.749ZM63.672,39.316a9.842,9.842,0,0,1-12.855,5.267l-.013-.006a9.83,9.83,0,0,1-5.272-12.87l1.519-3.622a9.774,9.774,0,0,1,8.728-6.026,4.035,4.035,0,0,0,3.979,4.529,3.563,3.563,0,0,0,3.151-1.813,9.854,9.854,0,0,1,2.281,10.918Z"
          transform="translate(0)"/>
    <path class="a"
          d="M380.645,247.521a.5.5,0,0,0,.405.9.6.6,0,1,1-.3.787.5.5,0,0,0-.9.406,1.591,1.591,0,0,0,1.451.936,1.644,1.644,0,0,0,1.482-1.023,1.575,1.575,0,0,0-.036-1.214A1.591,1.591,0,0,0,380.645,247.521Z"
          transform="translate(-326.792 -212.954)"/>
    <path class="a"
          d="M277.388,111.41a.5.5,0,0,0,.691-.117l.413-.582a.749.749,0,0,1,.61-.315h5.032a.5.5,0,0,0,0-.991H279.1a1.741,1.741,0,0,0-1.418.732l-.413.582A.5.5,0,0,0,277.388,111.41Z"
          transform="translate(-235.1 -94.451)"/>
  </g>
</svg>
