<svg xmlns="http://www.w3.org/2000/svg" xmlns:xlink="http://www.w3.org/1999/xlink" width="60.438"
     height="63.457" viewBox="0 0 60.438 63.457">
  <defs>
    <style>.a{fill:url(#a);}</style>
    <linearGradient id="a" x1="0.5" x2="0.5" y2="1" gradientUnits="objectBoundingBox">
      <stop offset="0" stop-color="#d6277f"/>
      <stop offset="1" stop-color="#f6ca3a"/>
    </linearGradient>
  </defs>
  <g transform="translate(-9.623 0)">
    <g transform="translate(21.312 0)">
      <g transform="translate(0 0)">
        <path class="a"
              d="M118.141,22.737,109.784,1.4a2.259,2.259,0,0,0-2.9-1.255L85.553,8.507a2.234,2.234,0,0,0-1.255,2.9l8.42,21.332a2.234,2.234,0,0,0,2.9,1.255l21.27-8.357A2.234,2.234,0,0,0,118.141,22.737Zm-23.19,8.809L86.795,10.791,107.55,2.622l8.157,20.768Z"
              transform="translate(-84.14 0)"/>
      </g>
    </g>
    <g transform="translate(9.623 36.126)">
      <g transform="translate(0)">
        <path class="a"
              d="M34.707,230.316H11.857a2.234,2.234,0,0,0-2.234,2.234v22.863a2.234,2.234,0,0,0,2.234,2.234H34.707a2.234,2.234,0,0,0,2.234-2.234V232.55A2.234,2.234,0,0,0,34.707,230.316Zm-.276,24.808h-22.3v-22.3h22.3Z"
              transform="translate(-9.623 -230.316)"/>
      </g>
    </g>
    <g transform="translate(37.68 30.063)">
      <g transform="translate(0)">
        <path class="a"
              d="M219.265,197.6l-22.085-5.873a2.271,2.271,0,0,0-2.736,1.631l-5.873,22.085a2.234,2.234,0,0,0,1.58,2.735h0l22.085,5.873a2.234,2.234,0,0,0,2.735-1.58h0l5.823-22.136A2.234,2.234,0,0,0,219.265,197.6Zm-6.638,23.842-21.558-5.659,5.735-21.546,21.546,5.735Z"
              transform="translate(-188.495 -191.66)"/>
      </g>
    </g>
    <g transform="translate(34.468 10.171)">
      <path class="a"
            d="M179.439,74.222a4.229,4.229,0,0,0-.891-1.154l-6.274-6.613-.74-.8a3.764,3.764,0,0,0-.615-.514,1.758,1.758,0,0,0-.753-.289,2.121,2.121,0,0,0-1.707.678,1.743,1.743,0,0,0-.351.728,4.424,4.424,0,0,0-.088.954V77.284q.038.565.063.866a1.874,1.874,0,0,0,.113.552,1.117,1.117,0,0,0,.665.627,1.255,1.255,0,0,0,.954,0,.991.991,0,0,0,.665-.627,5.947,5.947,0,0,0,.1-1.468V75.439l4.957-1.945,1.18,1.255.54.54a2.772,2.772,0,0,0,.514.427,1.079,1.079,0,0,0,.464.151,1.181,1.181,0,0,0,.54-.088,1.255,1.255,0,0,0,.665-.64A1.167,1.167,0,0,0,179.439,74.222Zm-8.972-.916-.176-5.7,3.815,4.267Z"
            transform="translate(-168.019 -64.843)"/>
    </g>
    <g transform="translate(18.147 42.642)">
      <path class="a"
            d="M72.232,278.024a3.012,3.012,0,0,0,1.958-2.874A3.138,3.138,0,0,0,74,274.071a3.1,3.1,0,0,0-.54-.941,3.213,3.213,0,0,0-.816-.7,3.465,3.465,0,0,0-1.255-.452,9.914,9.914,0,0,0-1.619-.113H65.606a1.682,1.682,0,0,0-1.255.376,1.719,1.719,0,0,0-.376,1.255v9.838a1.744,1.744,0,0,0,.364,1.255,1.656,1.656,0,0,0,1.267.389h4a14.067,14.067,0,0,0,1.744-.163,5.4,5.4,0,0,0,1.38-.351,3.376,3.376,0,0,0,1.518-1.255,3.589,3.589,0,0,0,.565-1.983A3.2,3.2,0,0,0,72.232,278.024Zm-5.584-4.141h2.1a5.4,5.4,0,0,1,2.146.326,1.255,1.255,0,0,1,.7,1.255,1.62,1.62,0,0,1-.226.841,1.456,1.456,0,0,1-.828.715,4.872,4.872,0,0,1-1.531.188H66.585Zm5.471,7.165q0,1.932-2.685,1.932H66.585l.063-3.815h2.723a3.9,3.9,0,0,1,2.083.452A1.581,1.581,0,0,1,72.119,281.048Z"
            transform="translate(-63.966 -271.853)"/>
    </g>
    <g transform="translate(48.086 39.054)">
      <path class="a"
            d="M266.927,252.5a5.107,5.107,0,0,0-1.493-2.033,6.111,6.111,0,0,0-2.51-1.255,6.5,6.5,0,0,0-2.51-.188,5.747,5.747,0,0,0-2.284.791,6.06,6.06,0,0,0-1.82,1.732,8.158,8.158,0,0,0-1.167,2.61,8.894,8.894,0,0,0-.3,1.82,7.09,7.09,0,0,0,.113,1.719,6.5,6.5,0,0,0,.5,1.556,5.219,5.219,0,0,0,.954,1.38,5.31,5.31,0,0,0,1.33.991,8.342,8.342,0,0,0,1.769.678,6.049,6.049,0,0,0,2.422.188,4.933,4.933,0,0,0,1.92-.728,4.867,4.867,0,0,0,1.255-1.129,3.464,3.464,0,0,0,.64-1.255,1.092,1.092,0,0,0-.113-.878,1.117,1.117,0,0,0-.7-.527.954.954,0,0,0-.866.113,2.835,2.835,0,0,0-.615.7,3.438,3.438,0,0,1-1.581,1.255,3.238,3.238,0,0,1-2.008,0,3.351,3.351,0,0,1-1.594-.791,3.2,3.2,0,0,1-.778-1.769,6.538,6.538,0,0,1,.238-2.51,5.634,5.634,0,0,1,1.832-3.25,3.137,3.137,0,0,1,2.836-.527,2.987,2.987,0,0,1,1.543.9,4,4,0,0,1,.8,1.719,3.351,3.351,0,0,0,.339.954,1.067,1.067,0,0,0,.678.427,1.016,1.016,0,0,0,.841-.138,1.143,1.143,0,0,0,.514-.69A3.1,3.1,0,0,0,266.927,252.5Z"
            transform="translate(-254.832 -248.978)"/>
    </g>
  </g>
</svg>
