<svg xmlns="http://www.w3.org/2000/svg" width="104.406" height="94.314"
     viewBox="0 0 104.406 94.314">
  <defs>
    <style>.a{fill:#d6277f;}</style>
  </defs>
  <g transform="translate(0 -24.745)">
    <path class="a"
          d="M456.242,134.05H446.56a2.039,2.039,0,1,0,0,4.078h9.682a2.039,2.039,0,1,0,0-4.078Z"
          transform="translate(-353.876 -87.016)"/>
    <path class="a"
          d="M426.918,35.182a2.032,2.032,0,0,0,1.264-.44l8.035-6.358a2.039,2.039,0,0,0-2.531-3.2l-8.035,6.358a2.039,2.039,0,0,0,1.267,3.638Z"
          transform="translate(-338.238 0)"/>
    <path class="a"
          d="M436.215,219l-8.035-6.359a2.039,2.039,0,0,0-2.531,3.2l8.035,6.359a2.039,2.039,0,0,0,2.531-3.2Z"
          transform="translate(-338.236 -149.231)"/>
    <path class="a"
          d="M26.558,138.128h9.676a2.039,2.039,0,1,0,0-4.078H26.558a2.039,2.039,0,1,0,0,4.078Z"
          transform="translate(-19.519 -87.016)"/>
    <path class="a"
          d="M53.015,28.383l8.034,6.358a2.039,2.039,0,1,0,2.531-3.2l-8.034-6.358a2.039,2.039,0,1,0-2.531,3.2Z"
          transform="translate(-41.588)"/>
    <path class="a"
          d="M61.05,212.642,53.016,219a2.039,2.039,0,1,0,2.531,3.2l8.034-6.359a2.039,2.039,0,0,0-2.531-3.2Z"
          transform="translate(-41.589 -149.231)"/>
    <path class="a"
          d="M139.855,77.864l1.584,1.532a2.039,2.039,0,1,0,2.835-2.932l-1.558-1.507a12.978,12.978,0,0,1,.024-17.86c3.771-3.907,10.462-3.7,14.915.461l.187.175c1.275,1.194,2.118,1.983,3.434,1.983s2.158-.789,3.434-1.983l.188-.176c4.45-4.163,11.14-4.37,14.914-.46a13.139,13.139,0,0,1,1.421,16.1,8.56,8.56,0,0,0-5.24,2.032,8.009,8.009,0,0,0-10.89.192,9.132,9.132,0,0,0,0,12.6l.049.049.545.526-4.424,4.271-3.821-3.686a2.039,2.039,0,0,0-2.832,2.935l5.237,5.052a2.039,2.039,0,0,0,2.832,0l5.944-5.738,5.946,5.739a2.039,2.039,0,0,0,2.832,0l9.427-9.1.051-.051a9.145,9.145,0,0,0,0-12.6,7.147,7.147,0,0,0-1.522-1.2,17.155,17.155,0,0,0,2.054-9,16.879,16.879,0,0,0-4.677-10.962,13.411,13.411,0,0,0-10.355-4.057,16.05,16.05,0,0,0-10.278,4.37l-.19.177c-.217.2-.447.418-.646.6-.2-.179-.43-.4-.646-.6l-.19-.177a16.065,16.065,0,0,0-10.281-4.37,13.4,13.4,0,0,0-10.353,4.056,17.09,17.09,0,0,0,0,23.55l.049.049Zm44.123,7.3-7.983,7.7-7.984-7.705a5.085,5.085,0,0,1,.025-6.908c1.534-1.593,4.056-1.105,5.518.263l.089.083a2.875,2.875,0,0,0,4.7,0l.094-.087c1.457-1.365,3.981-1.851,5.52-.257a5.1,5.1,0,0,1,.023,6.906Z"
          transform="translate(-107.552 -20.261)"/>
    <path class="a"
          d="M80.961,314.453,65.289,322.5a7.359,7.359,0,0,0-5.274-2.223H49.252a3.412,3.412,0,0,1-.73-.044,6.088,6.088,0,0,1-.568-.5l-.1-.1c-8.723-8.215-16.1-7.7-24.5-4.388a5.554,5.554,0,0,1-2.672.585l-2.434,0a5.319,5.319,0,0,0-5.026-3.6H5.311A5.316,5.316,0,0,0,0,317.55v20.769a5.317,5.317,0,0,0,5.311,5.311h7.913a5.319,5.319,0,0,0,5.027-3.6h4.412a2.03,2.03,0,0,1,.821.124c.168.047.374.105.64.177l20.48,5.478c.9.244,1.732.485,2.534.717a25.825,25.825,0,0,0,7.142,1.4c2.606,0,5.332-.821,8.919-3.214l.051-.035L88.5,326.7a7.192,7.192,0,0,0-7.539-12.248Zm-66.5,23.866a1.234,1.234,0,0,1-1.232,1.232H5.311a1.249,1.249,0,0,1-1.232-1.232V317.549a1.249,1.249,0,0,1,1.232-1.232h7.913a1.234,1.234,0,0,1,1.232,1.232ZM86.132,323.38,60.91,341.338c-5.162,3.438-7.353,2.8-12.636,1.269-.819-.238-1.666-.483-2.611-.739L25.181,336.39c-.244-.065-.434-.119-.59-.163a5.513,5.513,0,0,0-1.928-.277H18.535V319.918h2.082l.09,0,.156-.007a9.294,9.294,0,0,0,3.993-.867c7.33-2.888,12.985-3.231,20.2,3.564l.1.092a4.881,4.881,0,0,0,4.1,1.659H60.014a3.3,3.3,0,0,1,2.862,1.66l.006.013c.016.032.035.061.053.092a3.268,3.268,0,0,1,.381,1.531,3.305,3.305,0,0,1-3.3,3.3H42.575a2.039,2.039,0,1,0,0,4.078H60.014a7.376,7.376,0,0,0,7.212-8.942l15.6-8.011a3.127,3.127,0,1,1,3.308,5.3Z"
          transform="translate(0 -228.869)"/>
    <path class="a"
          d="M196.558,207.6a2.039,2.039,0,0,0-.893,2.742l.006.012a2.039,2.039,0,1,0,.887-2.754Z"
          transform="translate(-155.589 -145.394)"/>
  </g>
</svg>
