<svg xmlns="http://www.w3.org/2000/svg" xmlns:xlink="http://www.w3.org/1999/xlink" width="64.543"
     height="64.507" viewBox="0 0 64.543 64.507">
  <defs>
    <style>.a{fill:url(#a);}</style>
    <linearGradient id="a" x1="0.5" x2="0.5" y2="1" gradientUnits="objectBoundingBox">
      <stop offset="0" stop-color="#d6277f"/>
      <stop offset="1" stop-color="#f6ca3a"/>
    </linearGradient>
  </defs>
  <path class="a"
        d="M364.351,73.095h8.484a.818.818,0,0,0,.753-.471,1.939,1.939,0,0,0,0-1.894.819.819,0,0,0-.753-.471h-5.308l5.563-9.843a2.411,2.411,0,0,0,.346-1.126.882.882,0,0,0-.237-.632.963.963,0,0,0-.723-.249h-7.687a.809.809,0,0,0-.774.463,2.074,2.074,0,0,0-.226.955,1.907,1.907,0,0,0,.248.978.826.826,0,0,0,.752.44H369.3l-5.562,9.842a2.249,2.249,0,0,0-.347,1.128.9.9,0,0,0,.226.631A.956.956,0,0,0,364.351,73.095Z"
        transform="translate(-316.972 -50.966)"/>
  <path class="a"
        d="M286.881,105.906a1.531,1.531,0,0,0-.177.727,1.412,1.412,0,0,0,.229.761.928.928,0,0,0,.851.379h6.393a.792.792,0,0,0,.691-.4,1.625,1.625,0,0,0,.249-.9,1.574,1.574,0,0,0-.27-.923.81.81,0,0,0-.67-.4h-3.4l3.467-4.538a2.268,2.268,0,0,0,.511-1.373,1.024,1.024,0,0,0-.311-.815,1.059,1.059,0,0,0-.709-.264h-5.955a.792.792,0,0,0-.691.4,1.627,1.627,0,0,0-.249.9,1.569,1.569,0,0,0,.271.923.808.808,0,0,0,.67.4H290.7l-3.447,4.537A4.151,4.151,0,0,0,286.881,105.906Z"
        transform="translate(-250.081 -85.644)"/>
  <path class="a"
        d="M227.716,127.908a1.046,1.046,0,0,0-.121.5.966.966,0,0,0,.156.52.641.641,0,0,0,.587.263h4.278a.55.55,0,0,0,.48-.276,1.108,1.108,0,0,0,.17-.615,1.074,1.074,0,0,0-.185-.63.562.562,0,0,0-.465-.274h-2.23l2.294-3a1.538,1.538,0,0,0,.346-.931.7.7,0,0,0-.215-.562.729.729,0,0,0-.488-.182h-3.985a.55.55,0,0,0-.48.276,1.11,1.11,0,0,0-.17.614,1.071,1.071,0,0,0,.185.63.561.561,0,0,0,.465.274h1.91l-2.281,3A2.806,2.806,0,0,0,227.716,127.908Z"
        transform="translate(-198.522 -107.059)"/>
  <path class="a"
        d="M37.3,16.111a.958.958,0,0,0,1.318-.313A30.917,30.917,0,0,1,57.272,2.075a.463.463,0,0,1,.544.237.434.434,0,0,1-.079.559q-.192.184-.379.371A25.6,25.6,0,0,0,69.142,46.161a25.917,25.917,0,0,0,12.559.017.958.958,0,0,0-.463-1.859A23.991,23.991,0,0,1,69.61,44.3,23.688,23.688,0,0,1,58.712,4.6c.115-.115.231-.229.35-.343a2.352,2.352,0,0,0,.428-2.872A2.374,2.374,0,0,0,56.8.218,32.832,32.832,0,0,0,36.991,14.793a.958.958,0,0,0,.313,1.318Z"
        transform="translate(-32.142 -0.141)"/>
  <path class="a"
        d="M63.309,158.03a2.366,2.366,0,0,0-2.884.43l-.16.165a23.442,23.442,0,0,1-7.565,5.182.958.958,0,1,0,.754,1.762,25.348,25.348,0,0,0,8.181-5.6l.167-.172a.455.455,0,0,1,.578-.087.442.442,0,0,1,.229.527A30.822,30.822,0,1,1,4.681,139.872a.958.958,0,0,0-1.744-.794A32.7,32.7,0,0,0,32.021,185.34c.251.006.5.008.751.008A32.685,32.685,0,0,0,64.466,160.7,2.36,2.36,0,0,0,63.309,158.03Z"
        transform="translate(0.001 -120.841)"/>
  <path class="a"
        d="M71.364,241.513a.958.958,0,0,0-1.355,0,3.74,3.74,0,0,1-5.283,0,.958.958,0,0,0-1.355,1.355,5.658,5.658,0,0,0,7.993,0A.958.958,0,0,0,71.364,241.513Z"
        transform="translate(-55.032 -210.436)"/>
  <path class="a"
        d="M189.862,241.513a.958.958,0,0,0,0,1.355,5.658,5.658,0,0,0,7.993,0,.958.958,0,0,0-1.355-1.355,3.74,3.74,0,0,1-5.283,0A.958.958,0,0,0,189.862,241.513Z"
        transform="translate(-165.364 -210.436)"/>
  <path class="a"
        d="M116.339,326.312a4.412,4.412,0,0,0,.8.076,3.29,3.29,0,0,0,2.368-.916c1.528-1.528,1.119-4.33-.931-6.38s-4.852-2.458-6.38-.931-1.119,4.33.931,6.38A6.256,6.256,0,0,0,116.339,326.312Zm-2.784-6.8a1.368,1.368,0,0,1,.995-.355,4.091,4.091,0,0,1,2.676,1.286c1.225,1.225,1.66,2.94.931,3.67a1.67,1.67,0,0,1-1.468.311,4.392,4.392,0,0,1-2.2-1.241C113.26,321.961,112.825,320.246,113.555,319.517Z"
        transform="translate(-97.063 -276.733)"/>
</svg>
