<svg id="Twitter" xmlns="http://www.w3.org/2000/svg" xmlns:xlink="http://www.w3.org/1999/xlink" width="47.946" height="47.946" viewBox="0 0 47.946 47.946">
  <defs>
    <linearGradient id="linear-gradient" x1="0.332" y1="0.141" x2="0.585" y2="0.682" gradientUnits="objectBoundingBox">
      <stop offset="0" stop-color="#00c3ff"/>
      <stop offset="1" stop-color="#00b0ed"/>
    </linearGradient>
    <linearGradient id="linear-gradient-2" x1="0.738" y1="0.628" x2="-0.899" y2="-0.25" gradientUnits="objectBoundingBox">
      <stop offset="0" stop-color="#00b0ed" stop-opacity="0"/>
      <stop offset="1" stop-color="#00a2ce"/>
    </linearGradient>
    <linearGradient id="linear-gradient-3" x1="0.5" y1="0.27" x2="0.5" y2="0.926" xlink:href="#linear-gradient-2"/>
    <linearGradient id="linear-gradient-4" x1="0.946" y1="0.922" x2="0.342" y2="0.273" xlink:href="#linear-gradient-2"/>
  </defs>
  <g id="icon-twitter" transform="translate(0.946 0.946)">
    <g id="Group_5" data-name="Group 5">
      <g id="Group_4" data-name="Group 4">
        <path id="Path_11" data-name="Path 11" d="M33.852,0h-21.7A12.019,12.019,0,0,0,0,12.148v21.7A12.019,12.019,0,0,0,12.148,46h21.7A12.019,12.019,0,0,0,46,33.852v-21.7A12.02,12.02,0,0,0,33.852,0Zm9.181,33.852a9.083,9.083,0,0,1-9.181,9.181h-21.7a9.084,9.084,0,0,1-9.181-9.181v-21.7a9.084,9.084,0,0,1,9.181-9.181h21.7a9.083,9.083,0,0,1,9.181,9.181Z" fill="#fff"/>
        <path id="Path_12" data-name="Path 12" d="M115.225,116.087a1.484,1.484,0,0,0-1.623-.082,8.574,8.574,0,0,1-2.534.564c-.187.025-.371.049-.549.074a7.13,7.13,0,0,0-4.539-1.635,7.022,7.022,0,0,0-7.039,6.547,14.446,14.446,0,0,1-8.715-5.007,1.483,1.483,0,0,0-2.5.349c-.095.217-.923,2.254-.923,7.293,0,4.364,3.444,7.571,5.806,9.258a10.142,10.142,0,0,1-5.247.809,1.484,1.484,0,0,0-.959,2.73,17.452,17.452,0,0,0,9.326,2.69,17.017,17.017,0,0,0,17.312-16.594c.306-.444.889-1.307,1.874-2.822a10.136,10.136,0,0,0,.887-2.653A1.483,1.483,0,0,0,115.225,116.087Zm-4.864,5.648a1.487,1.487,0,0,0-.282.87A14.124,14.124,0,0,1,95.726,136.71a14.628,14.628,0,0,1-2.652-.242,12.73,12.73,0,0,0,3.265-1.828,1.484,1.484,0,0,0-.236-2.5c-.064-.033-6.336-3.331-6.336-7.949a31.557,31.557,0,0,1,.193-3.69,17.472,17.472,0,0,0,10.521,4.2c.03,0,.061,0,.089,0a1.483,1.483,0,0,0,1.381-2.061,4,4,0,0,1,4.027-4.667,4.135,4.135,0,0,1,2.986,1.269,1.489,1.489,0,0,0,1.356.433c.337-.064.726-.114,1.134-.168l.442-.059C110.782,121.148,110.38,121.708,110.36,121.734Z" transform="translate(-77.758 -104.342)" fill="#fff"/>
      </g>
    </g>
  </g>
  <g id="icon-twitter-color" transform="translate(0 0.001)" opacity="0">
    <path id="Path_13" data-name="Path 13" d="M39.37,47.124a144.817,144.817,0,0,1-30.794,0A8.73,8.73,0,0,1,.821,39.369a144.813,144.813,0,0,1,0-30.794A8.73,8.73,0,0,1,8.576.82a144.813,144.813,0,0,1,30.794,0,8.73,8.73,0,0,1,7.755,7.755,144.814,144.814,0,0,1,0,30.794,8.73,8.73,0,0,1-7.755,7.755Zm0,0" transform="translate(0 0)" fill="url(#linear-gradient)"/>
    <path id="Path_14" data-name="Path 14" d="M70.651,36.444a7.747,7.747,0,0,0-6.881-6.882,128.553,128.553,0,0,0-27.326,0,7.748,7.748,0,0,0-6.882,6.882,128.55,128.55,0,0,0,0,27.325,7.747,7.747,0,0,0,6.882,6.882,128.5,128.5,0,0,0,27.325,0,7.746,7.746,0,0,0,6.882-6.882,128.5,128.5,0,0,0,0-27.325Zm0,0" transform="translate(-26.134 -26.135)" fill="url(#linear-gradient-2)"/>
    <path id="Path_15" data-name="Path 15" d="M7.672,409.8q.049.5.1.994a8.73,8.73,0,0,0,7.755,7.755,144.811,144.811,0,0,0,30.794,0,8.73,8.73,0,0,0,7.755-7.755q.053-.5.1-.994Zm0,0" transform="translate(-6.954 -371.43)" fill="url(#linear-gradient-3)"/>
    <path id="Path_16" data-name="Path 16" d="M136.143,137.12l-9.952-9.952a11.877,11.877,0,0,1-2.839,1.187,8.125,8.125,0,0,1-1,.206,6.18,6.18,0,0,0-10.6,4.316c0,.123,0,.245.011.367a5.958,5.958,0,0,0,.112.869,16.929,16.929,0,0,1-10.472-4.188h0l-2.083-2.083s-2.444,4.265,1.149,7.5a6.855,6.855,0,0,0,.521.521l.046.05a6.055,6.055,0,0,1-2.711-.753,6,6,0,0,0,2.007,4.526l1.754,1.769a3.412,3.412,0,0,1-1.536-.146,5.906,5.906,0,0,0,1.769,2.78l2.457,2.47a12.718,12.718,0,0,1-7.45,1.659l14.9,14.562a144.973,144.973,0,0,0,15.354-.821,8.73,8.73,0,0,0,7.755-7.755,145.045,145.045,0,0,0,.81-17.082Zm0,0" transform="translate(-88.208 -114.832)" fill="url(#linear-gradient-4)"/>
    <path id="Path_17" data-name="Path 17" d="M127.036,129.567a11.18,11.18,0,0,1-3.188.885l-.013-.075a5.932,5.932,0,0,0,2.352-3.211,11.876,11.876,0,0,1-2.839,1.187,8.192,8.192,0,0,1-1,.206,6.18,6.18,0,0,0-10.6,4.316c0,.123,0,.245.011.366a5.959,5.959,0,0,0,.112.869,17.273,17.273,0,0,1-12.556-6.271s-2.752,4.8,1.874,8.08a6.444,6.444,0,0,1-2.869-.761s-.293,4.626,5.035,6.089a5.847,5.847,0,0,1-2.811.059,5.96,5.96,0,0,0,5.621,4.275,12.314,12.314,0,0,1-8.845,2.633A17.464,17.464,0,0,0,124.1,133.451q0-.181,0-.361c0-.071,0-.142,0-.214,0-.05,0-.1,0-.15a10.927,10.927,0,0,0,2.933-3.158Zm0,0" transform="translate(-88.204 -114.831)" fill="#fff"/>
  </g>
</svg>
