<svg xmlns="http://www.w3.org/2000/svg" xmlns:xlink="http://www.w3.org/1999/xlink" width="73.588"
     height="64.254" viewBox="0 0 73.588 64.254">
  <defs>
    <style>.a{fill:url(#a);}</style>
    <linearGradient id="a" x1="0.5" x2="0.5" y2="1" gradientUnits="objectBoundingBox">
      <stop offset="0" stop-color="#d6277f"/>
      <stop offset="1" stop-color="#f6ca3a"/>
    </linearGradient>
  </defs>
  <g transform="translate(0 0)">
    <g transform="translate(10.468)">
      <path class="a"
            d="M114.035,32.468a21.491,21.491,0,0,0-11.426,3.288c-.658.356-5.649,3.241-4.874,8.5a10.1,10.1,0,0,0,2.281,4.618c1.386,1.872,2.709,3.662,2.348,7.283-.02-.01-.038-.022-.057-.032a4.31,4.31,0,0,0-5.658,1.63,5.394,5.394,0,0,0-3.814-1.517,8.917,8.917,0,0,1,.014-1.725A10.955,10.955,0,0,0,92.8,51.88a8.087,8.087,0,0,0-3.751-5.721,11.054,11.054,0,0,0-8.9-1.26,10.19,10.19,0,0,0-4.482,16.831,3.089,3.089,0,0,1,.885,2.245A18.957,18.957,0,0,0,86.931,81.7,19.438,19.438,0,0,0,95.9,83.929a18.581,18.581,0,0,0,5.426-.808A19.4,19.4,0,0,0,104.182,82,11.7,11.7,0,0,0,110.715,71.6a4.289,4.289,0,0,0,2.1-.136,4.361,4.361,0,0,0,2.773-5.452l-1.1-3.542a7.189,7.189,0,0,0-9.47-4.562c1.042-5.716-1.007-8.485-2.685-10.752a7.687,7.687,0,0,1-1.747-3.327c-.51-3.459,3.253-5.473,3.408-5.555q.056-.029.109-.062a18.621,18.621,0,0,1,9.939-2.874c10.5,0,19.042,8.778,19.042,19.568,0,11.84-9.3,21.79-17.1,28.051A97.058,97.058,0,0,1,99.157,93.69,97.385,97.385,0,0,1,83.193,83.643a1.437,1.437,0,1,0-1.77,2.265A96.787,96.787,0,0,0,98.554,96.59a1.437,1.437,0,0,0,1.2,0,96.779,96.779,0,0,0,17.975-11.35,60.587,60.587,0,0,0,12.447-13.069c3.829-5.675,5.77-11.483,5.77-17.261C135.951,42.536,126.119,32.468,114.035,32.468ZM90.941,61.231a5.893,5.893,0,0,0,1.736-2.11,2.492,2.492,0,0,1,2.51,1.473l-.6,1.176-4.158-.082C90.6,61.528,90.773,61.377,90.941,61.231Zm12.631,1.9.479-.939a4.311,4.311,0,0,1,7.686,1.136l1.1,3.541a1.478,1.478,0,0,1-.91,1.862,1.438,1.438,0,0,1-1.763-.806l-.84-2.7a1.437,1.437,0,1,0-2.745.855l.862,2.769a8.787,8.787,0,0,1-4.524,10.562,16.331,16.331,0,0,1-22.693-9.565,16.26,16.26,0,0,1-.8-5.755,5.976,5.976,0,0,0-1.684-4.356A7.234,7.234,0,0,1,75.993,56.7a7.328,7.328,0,0,1,4.968-9.046,8.113,8.113,0,0,1,6.525.914,5.234,5.234,0,0,1,2.466,3.7,8.145,8.145,0,0,1,.03,2.014,11.683,11.683,0,0,0,.078,2.962c.117.807-.042.972-1.017,1.83-.268.236-.572.5-.887.813l-.011.011-.018.017a2.7,2.7,0,0,0,1.822,4.641l4.933.1a2.316,2.316,0,0,0,2.106-1.261l2.08-4.081a1.437,1.437,0,1,1,2.561,1.305l-.073.144a7.215,7.215,0,0,0-.607,1.191l-1.4,2.746a5.235,5.235,0,0,1-3.1,2.6,5.113,5.113,0,0,1-1.627.232L88.609,67.4a1.437,1.437,0,1,0-.058,2.874l6.216.125a8,8,0,0,0,2.539-.361,8.157,8.157,0,0,0,3.718-2.431l1.013,3.253A1.437,1.437,0,1,0,104.783,70l-1.28-4.112A4.319,4.319,0,0,1,103.572,63.133Z"
            transform="translate(-72.831 -32.468)"/>
    </g>
    <g transform="translate(14.38 47.418)">
      <path class="a"
            d="M102.493,362.791l-.041-.037a1.437,1.437,0,1,0-1.921,2.139l.041.037a1.437,1.437,0,1,0,1.921-2.139Z"
            transform="translate(-100.054 -362.386)"/>
    </g>
    <path class="a"
          d="M33.387,35.785a21.486,21.486,0,0,0-11.471-3.317C9.832,32.468,0,42.536,0,54.91c0,7.815,3.515,15.6,10.446,23.136A1.437,1.437,0,0,0,12.562,76.1c-6.428-6.99-9.688-14.119-9.688-21.19,0-10.79,8.542-19.568,19.042-19.568a18.618,18.618,0,0,1,9.938,2.874,1.437,1.437,0,1,0,1.533-2.432Z"
          transform="translate(0 -32.468)"/>
    <g transform="translate(50.234 6.832)">
      <path class="a" d="M350.95,80a1.437,1.437,0,1,0,0,2.875h.008A1.437,1.437,0,0,0,350.95,80Z"
            transform="translate(-349.513 -80.002)"/>
    </g>
    <g transform="translate(55.081 7.728)">
      <g transform="translate(0 0)">
        <path class="a"
              d="M392.312,91.977a15.273,15.273,0,0,0-7.119-5.641,1.437,1.437,0,0,0-1.031,2.683,12.788,12.788,0,0,1,8.049,11.935,1.437,1.437,0,0,0,2.875,0A15.763,15.763,0,0,0,392.312,91.977Z"
              transform="translate(-383.24 -86.24)"/>
      </g>
    </g>
  </g>
</svg>
