<svg xmlns="http://www.w3.org/2000/svg" xmlns:xlink="http://www.w3.org/1999/xlink" width="51.779"
     height="62.133" viewBox="0 0 51.779 62.133">
  <defs>
    <style>.a{fill:url(#a);}</style>
    <linearGradient id="a" x1="0.5" x2="0.5" y2="1" gradientUnits="objectBoundingBox">
      <stop offset="0" stop-color="#d6277f"/>
      <stop offset="1" stop-color="#f6ca3a"/>
    </linearGradient>
  </defs>
  <g transform="translate(-5)">
    <path class="a"
          d="M5.281,27.622a5.058,5.058,0,0,0,3.978,3.359,13.378,13.378,0,0,0,8.168,10.456v2.056H16.391A10.367,10.367,0,0,0,6.036,53.848V57.99a4.142,4.142,0,0,0,4.142,4.142H35.031a4.114,4.114,0,0,0,1.83-.434,10.373,10.373,0,0,0,2.974.434h.007A10.271,10.271,0,0,0,47.154,59.1l.725-.725.012-.008.008-.011,5.845-5.846A10.354,10.354,0,1,0,39.1,37.861l-6.4,6.4a10.435,10.435,0,0,0-3.883-.771H27.782v-2.1a13.73,13.73,0,0,0,8.077-10.409,5.178,5.178,0,0,0,4.349-5.094V22.782A17.591,17.591,0,0,0,31.9,7.86C31.649,3.49,27.582,0,22.6,0s-9.044,3.49-9.3,7.86A17.591,17.591,0,0,0,5,22.782v3.107c0,.014.008.027.008.041a5.568,5.568,0,0,0,.272,1.692Zm1.968-.646a3.21,3.21,0,0,1,.414-2.911,3.091,3.091,0,0,1,1.48-1.082v5.836a2.987,2.987,0,0,1-1.894-1.843ZM8.107,57.99V53.848a8.294,8.294,0,0,1,8.284-8.284h1.036a32.246,32.246,0,0,0,3.443,14.5H10.178A2.071,2.071,0,0,1,8.107,57.99Zm11.573-9.2a5.148,5.148,0,0,0,5.849,0A29.86,29.86,0,0,1,22.6,58.922,29.86,29.86,0,0,1,19.68,48.795ZM39.841,60.061h-.006a8.284,8.284,0,0,1-8.284-8.284,8.126,8.126,0,0,1,1.214-4.309C33.6,49.945,35.7,54.391,40.829,60a8.465,8.465,0,0,1-.988.063ZM43.1,59.39c-6.746-7.106-8.388-12.344-8.735-13.86L36.7,43.189c.5,2.772,2.425,7.663,8.992,14.436l-.007.006A8.243,8.243,0,0,1,43.1,59.39Zm4.061-3.229c-1.168-1.205-2.175-2.341-3.049-3.408q2.555.895,4.952,1.5ZM40.568,39.327a8.283,8.283,0,1,1,11.71,11.719h0l-1.5,1.5a58.633,58.633,0,0,1-8.948-2.853c-3.144-4.729-3.264-7.589-3.21-8.411Zm-9.3,6.627A10.365,10.365,0,0,0,32.506,59.1a10.491,10.491,0,0,0,1.132.962h-9.3a32.245,32.245,0,0,0,3.445-14.5h1.036a8.329,8.329,0,0,1,2.455.386Zm-5.562-1.426a3.107,3.107,0,1,1-6.213,0V42.091a13.669,13.669,0,0,0,3.093.367c.227,0,.456-.005.683-.017a13.09,13.09,0,0,0,2.437-.355Zm-2.537-4.157A11.337,11.337,0,0,1,11.213,30.031V21.125a2.046,2.046,0,0,1,.819-1.657,21.208,21.208,0,0,1,11.683-3.935h.038a.925.925,0,0,1,.678.282c1.976,2.193,4.763,3.417,8.519,3.734A1.128,1.128,0,0,1,34,20.671v7.947A11.574,11.574,0,0,1,23.174,40.372ZM36.057,28.807c0-.063.009-.125.009-.188V22.972a3.088,3.088,0,0,1-.009,5.834ZM22.6,2.071a7.171,7.171,0,0,1,6.98,4.556,17.526,17.526,0,0,0-13.959,0A7.171,7.171,0,0,1,22.6,2.071Zm0,5.178a15.54,15.54,0,0,1,15.479,14.48,5.134,5.134,0,0,0-2.017-.914V20.67a3.185,3.185,0,0,0-2.939-3.186c-3.253-.276-5.528-1.248-7.156-3.056a3.024,3.024,0,0,0-2.339-.966,23.29,23.29,0,0,0-12.826,4.33,4.1,4.1,0,0,0-1.629,3.023,5.194,5.194,0,0,0-2.052.9A15.54,15.54,0,0,1,22.6,7.249Z"/>
    <path class="a"
          d="M42.228,46.773a5.153,5.153,0,0,0,4.668,1.4,3.1,3.1,0,0,0,4.053-4.054,5.136,5.136,0,0,0-6.066-6.065A3.1,3.1,0,0,0,40.829,42.1,5.166,5.166,0,0,0,42.228,46.773Zm.732-6.59a1.036,1.036,0,0,1,1.264-.15,1.028,1.028,0,0,0,.816.11,3.071,3.071,0,0,1,3.818,3.818,1.036,1.036,0,0,0,.11.816,1.028,1.028,0,0,1-1.415,1.411,1.036,1.036,0,0,0-.533-.148,1.02,1.02,0,0,0-.284.039,3.07,3.07,0,0,1-3.817-3.816,1.036,1.036,0,0,0-.11-.817,1.036,1.036,0,0,1,.15-1.264Z"
          transform="translate(1.265 1.344)"/>
    <path class="a"
          d="M26.663,32.124a1.036,1.036,0,0,0-1.393.435,3.513,3.513,0,0,1-3.223,1.512,3.521,3.521,0,0,1-3.222-1.51,1.035,1.035,0,1,0-1.847.937,5.5,5.5,0,0,0,5.068,2.644A5.5,5.5,0,0,0,27.117,33.5a1.028,1.028,0,0,0-.454-1.374Z"
          transform="translate(0.422 1.137)"/>
    <path class="a"
          d="M15.178,51.036H14.142a1.036,1.036,0,1,0-2.071,0H11.036a1.036,1.036,0,1,0,0,2.071h4.142a1.036,1.036,0,1,0,0-2.071Z"
          transform="translate(0.178 1.777)"/>
  </g>
</svg>
